<?xml version="1.0" encoding="iso-8859-1"?>
<!-- Generator: Adobe Illustrator 19.0.0, SVG Export Plug-In . SVG Version: 6.00 Build 0)  -->
<svg version="1.1" id="Layer_1" xmlns="http://www.w3.org/2000/svg" xmlns:xlink="http://www.w3.org/1999/xlink" x="0px" y="0px"
	 viewBox="0 0 481.882 481.882" style="enable-background:new 0 0 481.882 481.882;" xml:space="preserve">
<circle style="fill:#64798A;" cx="240.941" cy="240.941" r="240.941"/>
<path style="fill:#3A556A;" d="M335.511,134.927H146.372c-10.842,0-19.878,9.035-19.878,19.878v188.536
	c0,10.842,9.035,19.878,19.878,19.878h188.536c10.842,0,19.878-9.035,19.878-19.878V154.805
	C354.786,143.962,346.353,134.927,335.511,134.927z"/>
<path style="fill:#FFFFFF;" d="M335.511,118.664H146.372c-10.842,0-19.878,9.035-19.878,19.878v188.536
	c0,10.842,9.035,19.878,19.878,19.878h188.536c10.842,0,19.878-9.035,19.878-19.878V138.541
	C354.786,127.699,346.353,118.664,335.511,118.664z"/>
<g>
</g>
<g>
</g>
<g>
</g>
<g>
</g>
<g>
</g>
<g>
</g>
<g>
</g>
<g>
</g>
<g>
</g>
<g>
</g>
<g>
</g>
<g>
</g>
<g>
</g>
<g>
</g>
<g>
</g>
</svg>
